<?xml version="1.0" standalone="no"?><svg xmlns:xlink="http://www.w3.org/1999/xlink" xmlns="http://www.w3.org/2000/svg" viewBox="0 0 1000 300" preserveAspectRatio="xMaxYMax slice"><g transform="scale(1.0460251046025104)"><rect x="0" y="0" width="956" height="382.4" fill="#000000"/><rect x="0" y="0" width="95.6" height="95.6" fill="#2d0000"/><rect x="0" y="0" width="95.6" height="95.6" fill="#525252"/><rect x="95.6" y="0" width="95.6" height="95.6" fill="#d70000"/><polygon points="95.6,0 191.2,95.6 95.6,95.6" fill="#1e1e1e"/><rect x="191.2" y="0" width="95.6" height="95.6" fill="#c10000"/><rect x="191.2" y="0" width="95.6" height="95.6" fill="#340000"/><rect x="286.8" y="0" width="95.6" height="95.6" fill="#b9b9b9"/><path d="M 286.8 0 A 95.6 95.6 0 0 1  382.4 95.6 L 286.8 0 A 95.6 95.6 0 0 0 382.4 95.6" fill="#5a5a5a"/><rect x="382.4" y="0" width="95.6" height="95.6" fill="#1e0000"/><polygon points="382.4,0 478,95.6 382.4,95.6" fill="#9b0000"/><rect x="478" y="0" width="95.6" height="95.6" fill="#060606"/><polygon points="573.6,0 573.6,95.6 478,95.6" fill="#ec0000"/><rect x="573.6" y="0" width="95.6" height="95.6" fill="#7e0000"/><path d="M 573.6 95.6 A 95.6 95.6 0 0 0 669.2 0 L 573.6 0" fill="#060000"/><rect x="669.2" y="0" width="95.6" height="95.6" fill="#3a3a3a"/><path d="M 669.2 95.6 A 95.6 95.6 0 0 1  764.8000000000001 0 L 764.8000000000001 95.6" fill="#606060"/><rect x="764.8" y="0" width="95.6" height="95.6" fill="#320000"/><polygon points="764.8,0 860.4,95.6 764.8,95.6" fill="#630000"/><rect x="860.4" y="0" width="95.6" height="95.6" fill="#820000"/><path d="M 860.4 0 A 95.6 95.6 0 0 0 956 95.6 L 956 0" fill="#c1c1c1"/><rect x="0" y="95.6" width="95.6" height="95.6" fill="#1f0000"/><polygon points="95.6,95.6 95.6,191.2 0,191.2" fill="#919191"/><rect x="95.6" y="95.6" width="95.6" height="95.6" fill="#cdcdcd"/><rect x="95.6" y="95.6" width="95.6" height="95.6" fill="#e60000"/><rect x="191.2" y="95.6" width="95.6" height="95.6" fill="#1a0000"/><path d="M 191.2 95.6 A 95.6 95.6 0 0 1  286.79999999999995 191.2 L 191.2 95.6 A 95.6 95.6 0 0 0 286.79999999999995 191.2" fill="#ae0000"/><rect x="286.8" y="95.6" width="95.6" height="95.6" fill="#080000"/><path d="M 286.8 95.6 A 95.6 95.6 0 0 1 382.4 191.2 L 286.8 191.2" fill="#050000"/><rect x="382.4" y="95.6" width="95.6" height="95.6" fill="#720000"/><polygon points="382.4,95.6 478,191.2 382.4,191.2" fill="#2b2b2b"/><rect x="478" y="95.6" width="95.6" height="95.6" fill="#878787"/><path d="M 478 191.2 A 95.6 95.6 0 0 1  573.6 95.6 L 573.6 191.2" fill="#979797"/><rect x="573.6" y="95.6" width="95.6" height="95.6" fill="#606060"/><path d="M 573.6 191.2 A 95.6 95.6 0 0 0 669.2 95.6 L 573.6 95.6" fill="#010000"/><rect x="669.2" y="95.6" width="95.6" height="95.6" fill="#c90000"/><polygon points="669.2,95.6 764.8000000000001,191.2 669.2,191.2" fill="#fdfdfd"/><rect x="764.8" y="95.6" width="95.6" height="95.6" fill="#e3e3e3"/><rect x="764.8" y="95.6" width="95.6" height="95.6" fill="#3d3d3d"/><rect x="860.4" y="95.6" width="95.6" height="95.6" fill="#ababab"/><path d="M 860.4 191.2 A 95.6 95.6 0 0 0 956 95.6 L 860.4 95.6" fill="#4e0000"/><rect x="0" y="191.2" width="95.6" height="95.6" fill="#350000"/><rect x="0" y="191.2" width="95.6" height="95.6" fill="#eeeeee"/><rect x="95.6" y="191.2" width="95.6" height="95.6" fill="#959595"/><polygon points="95.6,191.2 191.2,191.2 95.6,286.79999999999995" fill="#0f0f0f"/><rect x="191.2" y="191.2" width="95.6" height="95.6" fill="#9b9b9b"/><rect x="191.2" y="191.2" width="95.6" height="95.6" fill="#cecece"/><rect x="286.8" y="191.2" width="95.6" height="95.6" fill="#b00000"/><path d="M 286.8 191.2 A 95.6 95.6 0 0 0 382.4 286.79999999999995 L 382.4 191.2" fill="#2d0000"/><rect x="382.4" y="191.2" width="95.6" height="95.6" fill="#555555"/><path d="M 382.4 191.2 A 95.6 95.6 0 0 1  478 286.79999999999995 L 382.4 191.2 A 95.6 95.6 0 0 0 478 286.79999999999995" fill="#c8c8c8"/><rect x="478" y="191.2" width="95.6" height="95.6" fill="#a8a8a8"/><rect x="478" y="191.2" width="95.6" height="95.6" fill="#cdcdcd"/><rect x="573.6" y="191.2" width="95.6" height="95.6" fill="#ececec"/><polygon points="669.2,191.2 669.2,286.79999999999995 573.6,286.79999999999995" fill="#040404"/><rect x="669.2" y="191.2" width="95.6" height="95.6" fill="#4e0000"/><polygon points="669.2,191.2 764.8000000000001,191.2 764.8000000000001,286.79999999999995" fill="#4b0000"/><rect x="764.8" y="191.2" width="95.6" height="95.6" fill="#f80000"/><rect x="764.8" y="191.2" width="95.6" height="95.6" fill="#630000"/><rect x="860.4" y="191.2" width="95.6" height="95.6" fill="#5a5a5a"/><rect x="860.4" y="191.2" width="95.6" height="95.6" fill="#d30000"/><rect x="0" y="286.8" width="95.6" height="95.6" fill="#c0c0c0"/><rect x="0" y="286.8" width="95.6" height="95.6" fill="#ac0000"/><rect x="95.6" y="286.8" width="95.6" height="95.6" fill="#484848"/><polygon points="191.2,286.8 191.2,382.4 95.6,382.4" fill="#380000"/><rect x="191.2" y="286.8" width="95.6" height="95.6" fill="#d4d4d4"/><polygon points="191.2,286.8 286.79999999999995,286.8 191.2,382.4" fill="#c1c1c1"/><rect x="286.8" y="286.8" width="95.6" height="95.6" fill="#272727"/><path d="M 286.8 382.4 A 95.6 95.6 0 0 1  382.4 286.8 L 382.4 382.4" fill="#220000"/><rect x="382.4" y="286.8" width="95.6" height="95.6" fill="#5b5b5b"/><rect x="382.4" y="286.8" width="95.6" height="95.6" fill="#b30000"/><rect x="478" y="286.8" width="95.6" height="95.6" fill="#bf0000"/><rect x="478" y="286.8" width="95.6" height="95.6" fill="#550000"/><rect x="573.6" y="286.8" width="95.6" height="95.6" fill="#7a7a7a"/><path d="M 573.6 382.4 A 95.6 95.6 0 0 1  669.2 286.8 L 669.2 382.4" fill="#252525"/><rect x="669.2" y="286.8" width="95.6" height="95.6" fill="#a5a5a5"/><rect x="669.2" y="286.8" width="95.6" height="95.6" fill="#490000"/><rect x="764.8" y="286.8" width="95.6" height="95.6" fill="#d6d6d6"/><path d="M 764.8 286.8 A 95.6 95.6 0 0 0 860.4 382.4 L 860.4 286.8" fill="#6c0000"/><rect x="860.4" y="286.8" width="95.6" height="95.6" fill="#d2d2d2"/><rect x="860.4" y="286.8" width="95.6" height="95.6" fill="#c6c6c6"/></g></svg>